<?xml version="1.0" encoding="utf-8"?>
<svg id="master-artboard" xmlns="http://www.w3.org/2000/svg" viewBox="0 0 500 500" width="500px" height="500px"><g transform="matrix(0.43230345845222473, 0, 0, 0.43230345845222473, 22.847915851115715, -6.010229139532299)"><g transform="matrix(1, 0, 0, 1, 1.1368683772161603e-13, 0)"><path d="M 555.600012 591.099976 A 8.9 8.9 0 0 1 546.700012 599.999975 A 8.9 8.9 0 0 1 537.800013 591.099976 A 8.9 8.9 0 0 1 546.700012 582.199976 A 8.9 8.9 0 0 1 555.600012 591.099976 Z" class="st1" style="fill: rgb(51, 51, 51); opacity: 1;" transform="matrix(1, 0, 0, 1, 1.1368683772161603e-13, 0)"/><path class="st1" d="M690.2,661.2h-6.4c1.4-9.9-0.2-88-1.8-93.5c-0.4-1.4-3.9-6.7-9-13.8c2.6-4,16.8-9.3,20.6-15.2&#10;&#9;&#9;&#9;c4-6.4-1.6-8.9-8.1-13.7c-6.4-4.8-30.6,3.2-30.6,3.2c0.6,1.2,3.3,5.4,6.5,10.1c-15.3-20.1-34.3-43.5-39-46.3&#10;&#9;&#9;&#9;c-8.1-4.8-144.2-1.6-149,0c-2.4,0.8-17.5,18.4-32.3,36.4c0,0,0.1-0.1,0.1-0.1c0,0-24.2-8.1-30.6-3.2s-12.1,7.2-8.1,13.7&#10;&#9;&#9;&#9;c3.3,5.3,14.6,10,19.1,13.7c-6.4,8.1-10.8,13.8-11,14.5c-0.7,2.1-0.8,76.2,1.4,94.3h-7.1c-2.8,0-5,2.2-5,5s2.2,5,5,5h285.3&#10;&#9;&#9;&#9;c2.8,0,5-2.2,5-5S693,661.2,690.2,661.2z M624.7,543.5c-7.7,19.2-21.4,49.2-21.4,49.2c11.8-10.6,29.6-36,37.7-47.8&#10;&#9;&#9;&#9;c8.2,1.2,17.6,2.6,17.6,2.6s9.5,11.4,13.9,18.1c-11.7,4.2-37.5,13.6-41.8,17.3c-5.6,4.8-8.9,10.5-8.9,14.5c0,4,34.6-0.8,40.3-1.6&#10;&#9;&#9;&#9;c3.3-0.5,8.9-9.8,13.2-17.6c1.2,16.6,3.6,52.2,1.1,52.2c-3.2,0-62,9.7-67.7,6.4c-5.6-3.2-11.3-16.1-16.1-18.5&#10;&#9;&#9;&#9;c-4.8-2.4-90.2,0.8-93.4,1.6c-3.2,0.8-12.1,20.1-14.5,20.1c-2.4,0-67.7-7.2-67.7-7.2s0-42.4,1.4-59.1c4.2,8.1,11.6,21.5,15.5,22&#10;&#9;&#9;&#9;c5.6,0.8,40.3,5.6,40.3,1.6c0-4-3.2-9.7-8.9-14.5c-4.7-4-34.6-14.8-44.4-18.2c3.6-6.3,11.2-16,14.6-18c0,0,10.3-1.7,18.8-2.9&#10;&#9;&#9;&#9;c7.7,11.3,26.3,37.9,38.4,48.8c0,0-14.1-30.8-21.7-49.9C498.2,542.9,600.8,543.4,624.7,543.5z M475,653.1l141.8-0.8v8.9H474.7&#10;&#9;&#9;&#9;C475.3,657.6,475,653.1,475,653.1z" style="fill: rgb(51, 51, 51); opacity: 1;" transform="matrix(1, 0, 0, 1, 1.1368683772161603e-13, 0)"/></g></g><g transform="matrix(0.43272025513203516, 0, 0, 0.43272025513203516, -79.1626210615899, -78.08270218706548)"><g transform="matrix(1, 0, 0, 1, 0, 0)"><path class="st0" d="M694.1,655.6c0-20-12.6-37.1-30.3-43.7v50.2H631v-50.2c-17.7,6.6-30.3,23.7-30.3,43.7&#10;&#9;&#9;&#9;c0,17.1,9.2,32,22.9,40.1v136.8h47.5V695.8C684.8,687.6,694.1,672.7,694.1,655.6z" style="fill: none; stroke: rgb(51, 51, 51); stroke-width: 6; stroke-linecap: round; stroke-linejoin: round; stroke-miterlimit: 10;" transform="matrix(1, 0, 0, 1, 3.637978807091713e-12, 9.094947017729282e-13)"/><path class="st0" d="M464.4,638.5c0-9.5,20.7-8.8,46.2-8.8s46.2-0.7,46.2,8.8c0,9.5-20.7,17.2-46.2,17.2S464.4,648,464.4,638.5z" style="fill: none; stroke: rgb(51, 51, 51); stroke-width: 6; stroke-linecap: round; stroke-linejoin: round; stroke-miterlimit: 10;" transform="matrix(1, 0, 0, 1, 3.637978807091713e-12, 9.094947017729282e-13)"/><path d="M 497.600006 699.900024 L 523.200012 699.900024" class="st0" style="fill: none; stroke: rgb(51, 51, 51); stroke-width: 6; stroke-linecap: round; stroke-linejoin: round; stroke-miterlimit: 10;" transform="matrix(1, 0, 0, 1, 3.637978807091713e-12, 9.094947017729282e-13)"/><path class="st0" d="M560.1,748.2h-23.6v-34.6c-4.1,1.8-8.6,2.8-13.3,2.8H498c-4.9,0-9.5-1.1-13.7-2.9v34.8h-23.6&#10;&#9;&#9;&#9;c-22.5,0-40.8,18.3-40.8,40.8v38.7h90.5h90.5V789C600.9,766.4,582.7,748.2,560.1,748.2z" style="fill: none; stroke: rgb(51, 51, 51); stroke-width: 6; stroke-linecap: round; stroke-linejoin: round; stroke-miterlimit: 10;" transform="matrix(1, 0, 0, 1, 3.637978807091713e-12, 9.094947017729282e-13)"/><path class="st0" d="M523.2,581.8H498c-18.5,0-33.6,15.1-33.6,33.6v67.2c0,13.6,8.2,25.4,20,30.7c4.2,1.9,8.8,2.9,13.7,2.9h25.2&#10;&#9;&#9;&#9;c4.7,0,9.2-1,13.3-2.8c11.9-5.2,20.3-17.1,20.3-30.8v-67.2C556.8,597,541.7,581.8,523.2,581.8z" style="fill: none; stroke: rgb(51, 51, 51); stroke-width: 6; stroke-linecap: round; stroke-linejoin: round; stroke-miterlimit: 10;" transform="matrix(1, 0, 0, 1, 3.637978807091713e-12, 9.094947017729282e-13)"/><path class="st0" d="M471,748.2c0,0,11.2,30.8,39.6,30.8c28.4,0,41.3-30.8,41.3-30.8" style="fill: none; stroke: rgb(51, 51, 51); stroke-width: 6; stroke-linecap: round; stroke-linejoin: round; stroke-miterlimit: 10;" transform="matrix(1, 0, 0, 1, 3.637978807091713e-12, 9.094947017729282e-13)"/></g></g></svg>